<mxfile host="Electron" agent="Mozilla/5.0 (Windows NT 10.0; Win64; x64) AppleWebKit/537.36 (KHTML, like Gecko) draw.io/26.1.1 Chrome/132.0.6834.210 Electron/34.3.3 Safari/537.36" version="26.1.1">
  <diagram name="Page-1" id="2YBvvXClWsGukQMizWep">
    <mxGraphModel dx="2524" dy="836" grid="1" gridSize="10" guides="1" tooltips="1" connect="1" arrows="1" fold="1" page="1" pageScale="1" pageWidth="850" pageHeight="1100" math="0" shadow="0">
      <root>
        <mxCell id="0" />
        <mxCell id="1" parent="0" />
        <mxCell id="8thHlTiljH8iaXEaCz7o-1" value="Player" style="shape=umlActor;verticalLabelPosition=bottom;verticalAlign=top;html=1;" parent="1" vertex="1">
          <mxGeometry x="-260" y="300" width="30" height="60" as="geometry" />
        </mxCell>
        <mxCell id="8thHlTiljH8iaXEaCz7o-4" value="" style="html=1;whiteSpace=wrap;" parent="1" vertex="1">
          <mxGeometry x="-50" y="110" width="620" height="540" as="geometry" />
        </mxCell>
        <mxCell id="8thHlTiljH8iaXEaCz7o-5" value="Game" style="text;html=1;align=center;verticalAlign=middle;resizable=0;points=[];autosize=1;strokeColor=none;fillColor=none;" parent="1" vertex="1">
          <mxGeometry x="110" y="110" width="60" height="30" as="geometry" />
        </mxCell>
        <mxCell id="8thHlTiljH8iaXEaCz7o-7" value="玩家移动角色" style="ellipse;whiteSpace=wrap;html=1;" parent="1" vertex="1">
          <mxGeometry x="75" y="150" width="140" height="70" as="geometry" />
        </mxCell>
        <mxCell id="8thHlTiljH8iaXEaCz7o-15" value="" style="endArrow=none;html=1;rounded=0;exitX=0.5;exitY=0.5;exitDx=0;exitDy=0;exitPerimeter=0;entryX=0;entryY=0.5;entryDx=0;entryDy=0;" parent="1" source="8thHlTiljH8iaXEaCz7o-1" target="8thHlTiljH8iaXEaCz7o-7" edge="1">
          <mxGeometry width="50" height="50" relative="1" as="geometry">
            <mxPoint x="-170" y="330" as="sourcePoint" />
            <mxPoint x="-120" y="280" as="targetPoint" />
          </mxGeometry>
        </mxCell>
        <mxCell id="8thHlTiljH8iaXEaCz7o-16" value="玩家操控角色攻击" style="ellipse;whiteSpace=wrap;html=1;" parent="1" vertex="1">
          <mxGeometry x="340" y="150" width="140" height="70" as="geometry" />
        </mxCell>
        <mxCell id="8thHlTiljH8iaXEaCz7o-18" value="玩家重新开始游戏" style="ellipse;whiteSpace=wrap;html=1;" parent="1" vertex="1">
          <mxGeometry x="75" y="430" width="140" height="70" as="geometry" />
        </mxCell>
        <mxCell id="8thHlTiljH8iaXEaCz7o-19" value="" style="endArrow=none;html=1;rounded=0;exitX=0.5;exitY=0.5;exitDx=0;exitDy=0;exitPerimeter=0;entryX=0;entryY=0.5;entryDx=0;entryDy=0;" parent="1" source="8thHlTiljH8iaXEaCz7o-1" target="8thHlTiljH8iaXEaCz7o-18" edge="1">
          <mxGeometry width="50" height="50" relative="1" as="geometry">
            <mxPoint x="-235" y="340" as="sourcePoint" />
            <mxPoint x="85" y="405" as="targetPoint" />
          </mxGeometry>
        </mxCell>
        <mxCell id="VWw8TNJ_UMcDFX9Qy0oI-2" value="" style="endArrow=block;dashed=1;endFill=0;endSize=12;html=1;rounded=0;exitX=1;exitY=0.5;exitDx=0;exitDy=0;entryX=0;entryY=0.5;entryDx=0;entryDy=0;" edge="1" parent="1" source="8thHlTiljH8iaXEaCz7o-7" target="8thHlTiljH8iaXEaCz7o-16">
          <mxGeometry width="160" relative="1" as="geometry">
            <mxPoint x="240" y="220" as="sourcePoint" />
            <mxPoint x="400" y="220" as="targetPoint" />
          </mxGeometry>
        </mxCell>
      </root>
    </mxGraphModel>
  </diagram>
</mxfile>
